<svg xmlns="http://www.w3.org/2000/svg" viewBox="0 0 280 160">
  <defs>
    <linearGradient id="mbg" x1="0" y1="0" x2="1" y2="1">
      <stop offset="0%" stop-color="#e8f4fa"/>
      <stop offset="100%" stop-color="#e8f8f0"/>
    </linearGradient>
  </defs>
  <rect width="280" height="160" rx="12" fill="url(#mbg)"/>
  <!-- Piano keys -->
  <g transform="translate(55,55)">
    <rect x="0" y="0" width="24" height="60" rx="3" fill="white" stroke="#cbd5e0" stroke-width="1"/>
    <rect x="26" y="0" width="24" height="60" rx="3" fill="white" stroke="#cbd5e0" stroke-width="1"/>
    <rect x="52" y="0" width="24" height="60" rx="3" fill="white" stroke="#cbd5e0" stroke-width="1"/>
    <rect x="78" y="0" width="24" height="60" rx="3" fill="white" stroke="#cbd5e0" stroke-width="1"/>
    <rect x="104" y="0" width="24" height="60" rx="3" fill="white" stroke="#cbd5e0" stroke-width="1"/>
    <rect x="130" y="0" width="24" height="60" rx="3" fill="white" stroke="#cbd5e0" stroke-width="1"/>
    <rect x="156" y="0" width="24" height="60" rx="3" fill="white" stroke="#cbd5e0" stroke-width="1"/>
    <!-- Black keys -->
    <rect x="16" y="0" width="16" height="38" rx="2" fill="#2d3748"/>
    <rect x="42" y="0" width="16" height="38" rx="2" fill="#2d3748"/>
    <rect x="94" y="0" width="16" height="38" rx="2" fill="#2d3748"/>
    <rect x="120" y="0" width="16" height="38" rx="2" fill="#2d3748"/>
    <rect x="146" y="0" width="16" height="38" rx="2" fill="#2d3748"/>
  </g>
  <!-- Music notes -->
  <g fill="#6ec1e4" opacity="0.8">
    <circle cx="60" cy="35" r="5"/>
    <rect x="64" y="12" width="2.5" height="23"/>
    <path d="M66.5 12 Q76 8 76 18" fill="none" stroke="#6ec1e4" stroke-width="2.5"/>
  </g>
  <g fill="#7c5cfc" opacity="0.7">
    <circle cx="210" cy="28" r="4.5"/>
    <rect x="214" y="8" width="2.5" height="20"/>
    <path d="M216.5 8 Q225 5 225 14" fill="none" stroke="#7c5cfc" stroke-width="2.5"/>
  </g>
  <!-- Sound waves -->
  <g stroke="#43b88c" fill="none" stroke-width="2" opacity="0.4">
    <path d="M230 70 Q238 60 238 80 Q238 100 246 90"/>
    <path d="M240 65 Q250 52 250 82 Q250 112 260 95"/>
  </g>
</svg>